<svg width="66" height="66" viewBox="0 0 66 66" fill="none" xmlns="http://www.w3.org/2000/svg">
<path d="M60.1992 0.128906H5.80078C2.60223 0.128906 0 2.73114 0 5.92969V60.0703C0 63.2689 2.60223 65.8711 5.80078 65.8711H60.1992C63.3978 65.8711 66 63.2689 66 60.0703V5.92969C66 2.73114 63.3978 0.128906 60.1992 0.128906ZM5.80078 3.99609H60.1992C61.2654 3.99609 62.1328 4.8635 62.1328 5.92969V15.5977H3.86719V5.92969C3.86719 4.8635 4.7346 3.99609 5.80078 3.99609ZM60.1992 62.0039H5.80078C4.7346 62.0039 3.86719 61.1365 3.86719 60.0703V19.4648H62.1328V60.0703C62.1328 61.1365 61.2654 62.0039 60.1992 62.0039Z" fill="#3071E8"/>
<path d="M39.5625 25.422C38.581 25.0013 37.4442 25.456 37.0236 26.4375L25.422 53.5078C25.0013 54.4893 25.456 55.6261 26.4375 56.0467C27.4194 56.4675 28.556 56.0124 28.9765 55.0312L40.578 27.9609C40.9988 26.9793 40.544 25.8426 39.5625 25.422Z" fill="#3071E8"/>
<path d="M22.9083 31.7921C22.2411 30.9582 21.0241 30.8231 20.1906 31.4902L10.5226 39.2245C9.55594 39.9976 9.55529 41.4706 10.5226 42.2443L20.1906 49.9787C21.0245 50.6459 22.2415 50.5105 22.9083 49.6768C23.5754 48.8429 23.4403 47.626 22.6063 46.959L14.8258 40.7344L22.6063 34.5099C23.4403 33.8428 23.5754 32.6261 22.9083 31.7921Z" fill="#3071E8"/>
<path d="M55.4775 39.2245L45.8095 31.4901C44.9756 30.8229 43.7587 30.9581 43.0918 31.792C42.4247 32.6259 42.5598 33.8428 43.3938 34.5098L51.1743 40.7344L43.3938 46.9589C42.5598 47.626 42.4247 48.8427 43.0918 49.6766C43.7598 50.5114 44.9768 50.645 45.8095 49.9785L55.4775 42.2442C56.4441 41.4711 56.4448 39.9982 55.4775 39.2245Z" fill="#3071E8"/>
<path d="M9.79688 11.7305C10.8648 11.7305 11.7305 10.8648 11.7305 9.79688C11.7305 8.72898 10.8648 7.86328 9.79688 7.86328C8.72898 7.86328 7.86328 8.72898 7.86328 9.79688C7.86328 10.8648 8.72898 11.7305 9.79688 11.7305Z" fill="#3071E8"/>
<path d="M17.5312 11.7305C18.5991 11.7305 19.4648 10.8648 19.4648 9.79688C19.4648 8.72898 18.5991 7.86328 17.5312 7.86328C16.4634 7.86328 15.5977 8.72898 15.5977 9.79688C15.5977 10.8648 16.4634 11.7305 17.5312 11.7305Z" fill="#3071E8"/>
<path d="M25.2656 11.7305C26.3335 11.7305 27.1992 10.8648 27.1992 9.79688C27.1992 8.72898 26.3335 7.86328 25.2656 7.86328C24.1977 7.86328 23.332 8.72898 23.332 9.79688C23.332 10.8648 24.1977 11.7305 25.2656 11.7305Z" fill="#3071E8"/>
<path d="M44.6016 11.7305H56.2031C57.271 11.7305 58.1367 10.8647 58.1367 9.79688C58.1367 8.72902 57.271 7.86328 56.2031 7.86328H44.6016C43.5337 7.86328 42.668 8.72902 42.668 9.79688C42.668 10.8647 43.5337 11.7305 44.6016 11.7305Z" fill="#3071E8"/>
</svg>
